<svg xmlns="http://www.w3.org/2000/svg" xmlns:xlink="http://www.w3.org/1999/xlink" width="278" zoomAndPan="magnify" viewBox="0 0 208.5 119.999999" height="160" preserveAspectRatio="xMidYMid meet" version="1.0"><defs><g/><clipPath id="f79e7a4865"><path d="M 97 37 L 107 37 L 107 47 L 97 47 Z M 97 37 " clip-rule="nonzero"/></clipPath><clipPath id="f5dc7fe154"><path d="M 81.789062 0.144531 L 128.117188 2.53125 L 125.84375 46.617188 L 79.515625 44.230469 Z M 81.789062 0.144531 " clip-rule="nonzero"/></clipPath><clipPath id="9131e041b5"><path d="M 81.789062 0.144531 L 128.117188 2.53125 L 125.148438 60.066406 L 78.824219 57.679688 Z M 81.789062 0.144531 " clip-rule="nonzero"/></clipPath><clipPath id="8546350f4f"><path d="M 103 31 L 107 31 L 107 35 L 103 35 Z M 103 31 " clip-rule="nonzero"/></clipPath><clipPath id="87302d9a68"><path d="M 81.789062 0.144531 L 128.117188 2.53125 L 125.84375 46.617188 L 79.515625 44.230469 Z M 81.789062 0.144531 " clip-rule="nonzero"/></clipPath><clipPath id="59fd47eb81"><path d="M 81.789062 0.144531 L 128.117188 2.53125 L 125.148438 60.066406 L 78.824219 57.679688 Z M 81.789062 0.144531 " clip-rule="nonzero"/></clipPath><clipPath id="7219e9ba14"><path d="M 90 16 L 94 16 L 94 20 L 90 20 Z M 90 16 " clip-rule="nonzero"/></clipPath><clipPath id="aee9feaf4c"><path d="M 81.789062 0.144531 L 128.117188 2.53125 L 125.84375 46.617188 L 79.515625 44.230469 Z M 81.789062 0.144531 " clip-rule="nonzero"/></clipPath><clipPath id="8db8e702fd"><path d="M 81.789062 0.144531 L 128.117188 2.53125 L 125.148438 60.066406 L 78.824219 57.679688 Z M 81.789062 0.144531 " clip-rule="nonzero"/></clipPath><clipPath id="a1dc78f9cc"><path d="M 81 2 L 128 2 L 128 47 L 81 47 Z M 81 2 " clip-rule="nonzero"/></clipPath><clipPath id="623aef8773"><path d="M 81.789062 0.144531 L 128.117188 2.53125 L 125.84375 46.617188 L 79.515625 44.230469 Z M 81.789062 0.144531 " clip-rule="nonzero"/></clipPath><clipPath id="6e5194bcfb"><path d="M 81.789062 0.144531 L 128.117188 2.53125 L 125.148438 60.066406 L 78.824219 57.679688 Z M 81.789062 0.144531 " clip-rule="nonzero"/></clipPath></defs><g clip-path="url(#f79e7a4865)"><g clip-path="url(#f5dc7fe154)"><g clip-path="url(#9131e041b5)"><path fill="#d93b00" d="M 102.539062 37.300781 C 99.921875 37.167969 97.761719 39.117188 97.628906 41.667969 C 97.5 44.222656 99.511719 46.386719 102.0625 46.519531 C 104.617188 46.652344 106.839844 44.703125 106.972656 42.152344 C 107.101562 39.597656 105.152344 37.4375 102.539062 37.300781 Z M 102.191406 44.027344 C 100.945312 43.964844 100.058594 42.980469 100.121094 41.796875 C 100.183594 40.613281 101.226562 39.730469 102.410156 39.792969 C 103.59375 39.855469 104.542969 40.839844 104.480469 42.023438 C 104.417969 43.207031 103.375 44.089844 102.191406 44.027344 Z M 102.191406 44.027344 " fill-opacity="1" fill-rule="nonzero"/></g></g></g><g clip-path="url(#8546350f4f)"><g clip-path="url(#87302d9a68)"><g clip-path="url(#59fd47eb81)"><path fill="#d93b00" d="M 104.199219 31.707031 C 103.613281 32.175781 103.570312 33.046875 104.101562 33.636719 C 104.636719 34.164062 105.507812 34.207031 106.03125 33.734375 C 106.617188 33.265625 106.664062 32.394531 106.132812 31.804688 C 105.660156 31.21875 104.789062 31.175781 104.199219 31.707031 Z M 104.199219 31.707031 " fill-opacity="1" fill-rule="nonzero"/></g></g></g><g clip-path="url(#7219e9ba14)"><g clip-path="url(#aee9feaf4c)"><g clip-path="url(#8db8e702fd)"><path fill="#d93b00" d="M 91.207031 17.300781 C 90.621094 17.769531 90.574219 18.640625 91.105469 19.230469 C 91.640625 19.757812 92.515625 19.800781 93.039062 19.328125 C 93.625 18.859375 93.667969 17.988281 93.136719 17.398438 C 92.667969 16.8125 91.796875 16.769531 91.207031 17.300781 Z M 91.207031 17.300781 " fill-opacity="1" fill-rule="nonzero"/></g></g></g><g clip-path="url(#a1dc78f9cc)"><g clip-path="url(#623aef8773)"><g clip-path="url(#6e5194bcfb)"><path fill="#d93b00" d="M 127.273438 9.292969 C 126.886719 8.273438 126.054688 7.484375 125.078125 7.058594 C 112.109375 1.832031 97.660156 1.148438 84.277344 5.203125 C 83.199219 5.523438 82.347656 6.289062 81.863281 7.203125 C 81.375 8.175781 81.316406 9.296875 81.703125 10.316406 L 88.226562 27.886719 L 98.699219 56.085938 C 99.242188 57.613281 100.628906 58.621094 102.246094 58.703125 C 103.867188 58.789062 105.347656 57.925781 106.046875 56.464844 L 127.171875 12.410156 C 127.597656 11.433594 127.65625 10.3125 127.273438 9.292969 Z M 90.683594 27.449219 C 90.753906 27.328125 90.753906 27.265625 90.824219 27.144531 C 91.304688 26.296875 92.085938 25.648438 93.039062 25.324219 C 93.992188 25.0625 94.984375 25.175781 95.894531 25.660156 C 97.71875 26.625 98.351562 28.90625 97.382812 30.730469 C 96.902344 31.578125 96.117188 32.226562 95.167969 32.488281 C 94.28125 32.753906 93.351562 32.644531 92.496094 32.289062 Z M 119.1875 23.175781 C 118.644531 20.402344 116.261719 18.21875 113.332031 18.066406 C 109.847656 17.886719 106.835938 20.539062 106.65625 24.027344 C 106.476562 27.515625 109.136719 30.460938 112.683594 30.644531 C 113.867188 30.707031 115.003906 30.453125 115.972656 29.878906 L 103.792969 55.347656 C 103.375 56.203125 102.5625 56.222656 102.375 56.214844 C 102.125 56.199219 101.320312 56.097656 101.050781 55.269531 L 93.53125 35.152344 C 93.59375 35.15625 93.71875 35.160156 93.78125 35.164062 C 94.46875 35.199219 95.160156 35.109375 95.855469 34.898438 C 97.441406 34.417969 98.746094 33.359375 99.570312 31.90625 C 100.394531 30.449219 100.542969 28.769531 100.0625 27.183594 C 99.582031 25.597656 98.527344 24.234375 97.070312 23.472656 C 94.582031 22.09375 91.496094 22.621094 89.578125 24.644531 L 86.078125 15.039062 C 90.082031 13.683594 94.246094 12.835938 98.445312 12.554688 C 98.167969 13.101562 98.011719 13.65625 97.980469 14.277344 C 97.847656 16.832031 99.859375 18.996094 102.414062 19.125 C 104.96875 19.257812 107.191406 17.3125 107.320312 14.757812 C 107.359375 14.011719 107.210938 13.316406 106.925781 12.742188 C 112.207031 13.261719 117.316406 14.710938 122.195312 16.960938 Z M 116.808594 24.550781 C 116.699219 26.667969 114.867188 28.261719 112.75 28.152344 C 110.632812 28.042969 108.980469 26.207031 109.085938 24.152344 C 109.195312 22.035156 111.023438 20.445312 113.140625 20.554688 C 115.320312 20.667969 116.917969 22.433594 116.808594 24.550781 Z M 100.476562 14.34375 C 100.527344 13.347656 101.316406 12.578125 102.261719 12.375 C 102.574219 12.390625 102.886719 12.40625 103.195312 12.421875 C 104.183594 12.660156 104.886719 13.570312 104.835938 14.566406 C 104.773438 15.75 103.730469 16.632812 102.546875 16.574219 C 101.363281 16.511719 100.414062 15.527344 100.476562 14.34375 Z M 124.859375 11.292969 L 123.25 14.644531 C 117.03125 11.761719 110.242188 10.164062 103.449219 9.9375 C 103.261719 9.929688 103.078125 9.855469 102.832031 9.84375 C 102.582031 9.832031 102.269531 9.816406 102.015625 9.863281 C 96.277344 9.820312 90.542969 10.773438 85.140625 12.617188 L 83.9375 9.371094 C 83.832031 8.988281 83.851562 8.617188 83.992188 8.25 C 84.199219 7.886719 84.523438 7.652344 84.90625 7.484375 C 97.71875 3.648438 111.609375 4.304688 124.085938 9.316406 C 124.453125 9.460938 124.753906 9.726562 124.917969 10.109375 C 125.085938 10.554688 125.066406 10.929688 124.859375 11.292969 Z M 124.859375 11.292969 " fill-opacity="1" fill-rule="nonzero"/></g></g></g><g fill="#ffffff" fill-opacity="1"><g transform="translate(16.292602, 77.900225)"><g><path d="M 9.015625 -15.5625 L 9.015625 -20.078125 L 28.5 -19.875 L 28.5 -26.890625 L 0.796875 -27.296875 L 1.078125 -0.078125 L 27.734375 0.078125 L 27.5 -6.5 L 9.21875 -6.984375 L 9.296875 -11.8125 L 24.296875 -11.578125 L 24.546875 -15.28125 Z M 9.015625 -15.5625 "/></g></g></g><g fill="#ffffff" fill-opacity="1"><g transform="translate(45.579451, 77.900225)"><g><path d="M 0.796875 -26.140625 L 1.671875 -9.09375 L 19.515625 -9.859375 L 19.546875 -5.953125 L 1.921875 -5.34375 L 2.28125 0.203125 L 26.734375 -0.28125 L 25.859375 -16.640625 L 8.578125 -15.796875 L 8.296875 -19.546875 L 25.8125 -20.515625 L 25.1875 -27.6875 Z M 0.796875 -26.140625 "/></g></g></g><g fill="#ffffff" fill-opacity="1"><g transform="translate(73.110683, 77.900225)"><g><path d="M 8.375 -9.453125 L 26.703125 -10.53125 L 26.5 -27.6875 L 0.796875 -26.21875 L 1.921875 0 L 9.09375 -0.15625 Z M 19.46875 -15.96875 L 8.21875 -15.484375 L 7.734375 -21.515625 L 19.15625 -21.984375 Z M 19.46875 -15.96875 "/></g></g></g><g fill="#ffffff" fill-opacity="1"><g transform="translate(100.602014, 77.900225)"><g><path d="M 28.578125 -27.296875 L 0.796875 -25.578125 L 1.28125 -0.203125 L 29.6875 -0.046875 Z M 8.984375 -7.296875 L 8.296875 -20.71875 L 21.828125 -21.3125 L 22.03125 -7.296875 Z M 8.984375 -7.296875 "/></g></g></g><g fill="#ffffff" fill-opacity="1"><g transform="translate(131.085871, 77.900225)"><g><path d="M 0.796875 -27.5 L 1.59375 0.203125 L 8.578125 0 L 8.78125 -12.609375 L 12.328125 -12.53125 L 22.03125 0.359375 L 31 0.203125 L 21.03125 -12.6875 L 27.296875 -12.8125 L 27.734375 -27.96875 Z M 17.15625 -17.28125 L 8.421875 -17.234375 L 8.421875 -21.984375 L 17 -22.0625 Z M 17.15625 -17.28125 "/></g></g></g><g fill="#ffffff" fill-opacity="1"><g transform="translate(162.88644, 77.900225)"><g><path d="M 27.171875 -18.75 L 27.578125 -26.53125 L 0.796875 -26.859375 L 0.796875 -19.953125 L 10.25 -19.59375 L 10.734375 0.15625 L 18.5625 -0.078125 L 17.953125 -19.3125 Z M 27.171875 -18.75 "/></g></g></g><g fill="#d93b00" fill-opacity="1"><g transform="translate(37.647446, 105.094046)"><g><path d="M 6.921875 -7.8125 L 22.0625 -8.703125 L 21.90625 -22.890625 L 0.65625 -21.671875 L 1.578125 0 L 7.515625 -0.125 Z M 16.09375 -13.1875 L 6.796875 -12.796875 L 6.40625 -17.78125 L 15.828125 -18.171875 Z M 16.09375 -13.1875 "/></g></g></g><g fill="#d93b00" fill-opacity="1"><g transform="translate(60.372972, 105.094046)"><g><path d="M 1.09375 -23.3125 L 0.65625 -0.03125 L 7.65625 -0.03125 L 7.65625 -23.359375 Z M 1.09375 -23.3125 "/></g></g></g><g fill="#d93b00" fill-opacity="1"><g transform="translate(68.684773, 105.094046)"><g><path d="M 0.65625 -22.296875 L 1.28125 -16.71875 L 17.75 -17.8125 L 1.6875 -9.234375 L 1.015625 0 L 25.328125 0.0625 L 25.46875 -5.8125 L 7.6875 -5.609375 L 25.4375 -15.828125 L 24.875 -22.859375 Z M 0.65625 -22.296875 "/></g></g></g><g fill="#d93b00" fill-opacity="1"><g transform="translate(94.807591, 105.094046)"><g><path d="M 0.65625 -22.296875 L 1.28125 -16.71875 L 17.75 -17.8125 L 1.6875 -9.234375 L 1.015625 0 L 25.328125 0.0625 L 25.46875 -5.8125 L 7.6875 -5.609375 L 25.4375 -15.828125 L 24.875 -22.859375 Z M 0.65625 -22.296875 "/></g></g></g><g fill="#d93b00" fill-opacity="1"><g transform="translate(120.930409, 105.094046)"><g><path d="M 23.546875 -0.0625 L 23.6875 -22.71875 L 1.484375 -23.453125 L 0.65625 -0.0625 L 7.8125 0 L 8.1875 -10.15625 L 17.25 -9.96875 L 17.3125 -0.03125 Z M 17.28125 -18.703125 L 17.421875 -14.453125 L 7.921875 -14.78125 L 8.015625 -19.0625 Z M 17.28125 -18.703125 "/></g></g></g></svg>